<?xml version="1.0" standalone="no"?>
<!DOCTYPE svg PUBLIC "-//W3C//DTD SVG 20010904//EN"
 "http://www.w3.org/TR/2001/REC-SVG-20010904/DTD/svg10.dtd">
<svg version="1.0" xmlns="http://www.w3.org/2000/svg"
 width="512.000000pt" height="512.000000pt" viewBox="0 0 512.000000 512.000000"
 preserveAspectRatio="xMidYMid meet">

<g transform="translate(0.000000,512.000000) scale(0.100000,-0.100000)"
fill="#000000" stroke="none">
<path d="M4382 5100 c-88 -23 -177 -69 -239 -124 -26 -23 -272 -311 -546 -641
-275 -330 -509 -610 -520 -622 l-19 -22 68 -34 c208 -106 400 -294 531 -519
41 -70 48 -77 62 -65 9 8 286 239 616 514 330 274 621 523 647 553 91 104 138
235 138 383 0 165 -56 303 -170 418 -150 152 -365 212 -568 159z"/>
<path d="M2330 3499 c-155 -18 -336 -85 -468 -173 -37 -24 -134 -104 -217
-176 -619 -545 -1121 -839 -1589 -930 l-59 -12 6 -107 c11 -174 50 -359 101
-475 14 -31 32 -59 40 -62 40 -15 355 52 455 97 35 16 66 29 68 29 6 0 -70
-89 -224 -262 -68 -76 -123 -144 -123 -151 0 -18 164 -201 229 -256 l52 -43
104 50 c206 100 447 260 645 427 88 74 93 77 71 40 -70 -115 -362 -581 -411
-655 -80 -120 -78 -117 -39 -93 284 173 502 313 627 405 28 21 52 36 52 34 0
-3 -12 -22 -26 -43 -42 -61 -93 -168 -149 -313 -46 -118 -115 -322 -115 -341
0 -7 95 -48 283 -119 136 -51 138 -52 190 -40 281 67 719 477 1216 1140 381
508 457 662 468 948 6 148 -5 244 -43 361 -130 395 -476 673 -897 720 -107 12
-139 12 -247 0z"/>
<path d="M3293 939 c-57 -28 -83 -72 -83 -139 0 -67 27 -112 84 -139 54 -26
88 -26 142 0 57 27 84 72 84 139 0 67 -27 112 -84 139 -54 26 -90 26 -143 0z"/>
<path d="M3755 627 c-56 -19 -81 -33 -127 -75 -98 -88 -127 -245 -70 -367 33
-68 92 -127 161 -158 65 -30 187 -30 252 0 164 75 236 268 161 428 -33 69 -93
128 -161 158 -56 25 -162 32 -216 14z"/>
<path d="M2653 299 c-57 -28 -83 -72 -83 -139 0 -67 27 -112 84 -139 54 -26
88 -26 142 0 57 27 84 72 84 139 0 67 -27 112 -84 139 -54 26 -90 26 -143 0z"/>
</g>
</svg>
